<svg xmlns="http://www.w3.org/2000/svg" width="110" height="50" viewBox="0 0 110 50">
    <g fill="none" fill-rule="evenodd">
        <g fill-rule="nonzero">
            <g>
                <g fill="#0094D9">
                    <path d="M49.943 13.262h-.063l-.063.032c-1.286.752-2.415 2.195-2.823 3.73l-.188.66.627-.283c.785-.345 3.326-.345 5.365.94 1.725 1.098 2.635 2.854 2.666 5.049 0 5.298-3.796 6.364-4.8 6.364-4.046 0-4.956-4.64-4.956-6.27V5.675h-.314c-1.945 0-3.764.91-4.988 2.477l-.063.094v15.112c0 2.258.91 5.487 3.483 7.744 1.976 1.756 4.14 2.571 6.838 2.571 2.824 0 10.133-1.818 10.133-10.22-.031-2.509-.753-4.547-2.258-6.397-2.667-3.26-6.996-3.982-8.596-3.794zM75.009 11.036c1.474 0 2.697-1.222 2.697-2.696 0-1.474-1.223-2.696-2.697-2.696-1.475 0-2.698 1.222-2.698 2.696 0 1.505 1.223 2.696 2.698 2.696zM72.373 15.77l-.062.095V33.61h.313c1.914 0 3.828-.91 5.02-2.383l.062-.094V13.325h-.313c-1.977 0-3.859.91-5.02 2.446zM34.665 5.706c-1.474 0-2.698 1.223-2.698 2.697 0 1.473 1.224 2.696 2.698 2.696 1.475 0 2.698-1.223 2.698-2.696 0-1.505-1.223-2.697-2.698-2.697zM31.999 15.833l-.063.094v17.746h.314c1.913 0 3.827-.909 5.019-2.382l.063-.094v-.878V13.388h-.314c-1.945-.031-3.827.878-5.02 2.445zM9.6 13.262h-.063l-.063.032c-1.286.752-2.415 2.195-2.823 3.73l-.189.66.628-.283c.784-.345 3.325-.345 5.364.94 1.726 1.098 2.636 2.854 2.667 5.049 0 5.298-3.796 6.364-4.8 6.364-4.047 0-4.957-4.64-4.957-6.27V5.675h-.313c-1.945 0-3.765.91-4.988 2.477L0 8.246v15.112c0 2.258.91 5.487 3.482 7.744 1.977 1.756 4.141 2.571 6.84 2.571 2.823 0 10.132-1.818 10.132-10.22-.031-2.509-.753-4.547-2.259-6.397-2.666-3.26-7.027-3.982-8.595-3.794zM23.528 2.571l-.062.094v30.946h.313c2.07 0 4.141-1.035 5.02-2.509l.031-.062V0h-.314c-1.945 0-3.921 1.003-4.988 2.571zM63.903 2.571l-.063.094v30.946h.314c2.07 0 4.141-1.035 5.02-2.509l.03-.062V0h-.313c-1.976 0-3.921 1.003-4.988 2.571z" transform="translate(-120.000000, -24.000000) translate(120.000000, 24.000000) translate(31.284404, 0.000000)"/>
                </g>
                <g fill="#0A69A3">
                    <path d="M3.836 10.204c-.628 0-1.32-.122-1.98-.336-.692-.214-1.29-.58-1.856-1.07l1.54-1.771c.378.275.756.52 1.164.702.41.184.818.275 1.195.275.41 0 .692-.06.88-.183.19-.122.284-.305.284-.52 0-.121-.032-.213-.094-.305-.063-.091-.158-.153-.283-.214-.126-.06-.252-.152-.44-.214-.158-.06-.347-.152-.567-.213l-1.258-.52c-.283-.091-.534-.244-.786-.397-.251-.153-.471-.367-.66-.58-.189-.214-.346-.49-.44-.795-.095-.305-.158-.61-.158-.977 0-.428.095-.825.283-1.192.19-.366.44-.703.787-.977.345-.275.723-.49 1.195-.673C3.113.092 3.616 0 4.15 0c.597 0 1.163.092 1.76.306.598.213 1.133.55 1.605 1.008l-1.352 1.65c-.346-.245-.66-.398-.975-.52-.315-.122-.66-.183-1.038-.183-.346 0-.598.06-.786.153-.189.122-.283.275-.283.488 0 .245.126.398.409.55.251.122.628.275 1.1.459l1.227.458c.629.244 1.132.58 1.478 1.008.346.428.503 1.008.503 1.68 0 .428-.095.825-.252 1.192-.189.397-.44.733-.786 1.008-.346.275-.755.52-1.226.703-.504.152-1.07.244-1.699.244zM9.434 10.021L9.434.183 15.975.183 15.975 2.352 12.107 2.352 12.107 3.911 15.409 3.911 15.409 6.08 12.107 6.08 12.107 7.821 16.132 7.821 16.132 9.99 9.434 9.99zM18.082 10.021L18.082.183 20.755.183 20.755 7.852 24.591 7.852 24.591 10.021zM26.069 10.021L26.069.183 28.742.183 28.742 7.852 32.579 7.852 32.579 10.021zM34.119 10.021L34.119.183 40.66.183 40.66 2.352 36.792 2.352 36.792 3.911 40.094 3.911 40.094 6.08 36.792 6.08 36.792 7.821 40.818 7.821 40.818 9.99 34.119 9.99zM42.799 10.02V.184h3.836c.535 0 1.07.061 1.541.153.503.092.912.275 1.29.52.377.244.66.58.88.977.22.397.314.917.314 1.528 0 .702-.157 1.283-.44 1.741-.283.458-.692.825-1.195 1.1l2.201 3.819H48.24l-1.761-3.3H45.44v3.3H42.8zm2.673-5.346h.975c1.069 0 1.635-.427 1.635-1.313 0-.428-.126-.703-.409-.886-.283-.153-.692-.245-1.195-.245h-.975v2.444h-.031zM60.44 10.204c-.629 0-1.258-.092-1.855-.305-.598-.214-1.1-.52-1.541-.948-.44-.427-.786-.947-1.038-1.588-.251-.642-.377-1.375-.377-2.2 0-.825.126-1.558.409-2.2.283-.641.629-1.191 1.069-1.619.44-.427.975-.764 1.572-1.008C59.277.092 59.874 0 60.535 0c.66 0 1.289.122 1.792.397.535.245.975.55 1.352.917l-1.415 1.68c-.251-.214-.503-.397-.786-.52-.252-.122-.566-.213-.912-.213-.314 0-.597.06-.849.183-.252.122-.503.306-.692.55-.189.244-.377.55-.472.886-.125.367-.188.764-.188 1.191 0 .917.188 1.65.597 2.14.41.488.912.732 1.573.732.408 0 .754-.091 1.037-.244.315-.153.566-.367.786-.611l1.416 1.65c-.44.488-.944.855-1.51 1.1-.566.244-1.163.366-1.824.366zM65.22 10.021L65.22.183 71.761.183 71.761 2.352 67.893 2.352 67.893 3.911 71.195 3.911 71.195 6.08 67.893 6.08 67.893 7.821 71.918 7.821 71.918 9.99 65.22 9.99zM73.805 10.02V.184h2.736l2.233 4.4.974 2.2h.063c-.031-.276-.063-.55-.094-.856l-.094-.947-.095-.978c-.031-.366-.031-.672-.031-.977V.183h2.547v9.838h-2.736l-2.233-4.4-.974-2.2h-.063c.063.581.126 1.192.22 1.834.094.641.126 1.313.126 1.894V9.99h-2.579v.03zM86.132 10.021L86.132 2.352 83.459 2.352 83.459.183 91.509.183 91.509 2.352 88.836 2.352 88.836 10.021zM92.893 10.021L92.893.183 99.434.183 99.434 2.352 95.566 2.352 95.566 3.911 98.868 3.911 98.868 6.08 95.566 6.08 95.566 7.821 99.623 7.821 99.623 9.99 92.893 9.99zM101.572 10.02V.184h3.837c.534 0 1.069.061 1.54.153.504.092.913.275 1.29.52.377.244.66.58.88.977.22.397.315.917.315 1.528 0 .702-.157 1.283-.44 1.741-.283.458-.692.825-1.195 1.1L110 10.02h-2.987l-1.761-3.3h-1.038v3.3h-2.642zm2.673-5.346h.975c1.07 0 1.635-.427 1.635-1.313 0-.428-.125-.703-.408-.886-.283-.153-.692-.245-1.195-.245h-.975v2.444h-.032z" transform="translate(-120.000000, -24.000000) translate(120.000000, 24.000000) translate(0.000000, 39.795918)"/>
                </g>
                <g>
                    <path fill="#0094D9" d="M24.571 12.643c-1.052-.032-1.98-.482-2.6-1.155-.65.706-1.67 1.155-2.784 1.155-1.115 0-2.136-.45-2.786-1.155-.65.706-1.67 1.155-2.785 1.155-1.114 0-2.135-.45-2.785-1.155-.65.706-1.671 1.155-2.785 1.155s-2.136-.45-2.786-1.155c-.618.641-1.516 1.09-2.506 1.155.278 4.941.093 11.23-1.176 17.167 0 .417.31.738.68.802h22.685c.402-.064.68-.417.68-.834v-.064c-.804-4.043-1.454-10.557-1.052-17.071z" transform="translate(-120.000000, -24.000000) translate(120.000000, 24.000000) translate(0.000000, 3.061224)"/>
                    <g fill="#FFF">
                        <path d="M.805 1.669C.37 1.669 0 1.284 0 .834 0 .385.371 0 .805 0c.433 0 .804.385.804.834 0 .482-.371.835-.804.835M10.677 1.669c-.434 0-.805-.385-.805-.835 0-.449.371-.834.805-.834.433 0 .804.385.804.834 0 .482-.371.835-.804.835M11.574 4.075c0 3.305-2.6 6-5.787 6S0 7.38 0 4.076c0-.449.371-.834.805-.834.433 0 .804.385.804.834 0 2.407 1.888 4.332 4.178 4.332 2.321 0 4.178-1.957 4.178-4.332 0-.449.371-.834.804-.834.434 0 .805.385.805.834" transform="translate(-120.000000, -24.000000) translate(120.000000, 24.000000) translate(0.000000, 3.061224) translate(7.860020, 14.439738)"/>
                    </g>
                    <g>
                        <path fill="#DF2127" d="M4.982 0c-.928 0-1.764.578-2.135 1.476L.185 8.343c-.588 1.476.279 3.177 1.826 3.433.155.032.34.032.495.032 1.548 0 2.785-1.026 2.785-2.31L7.52 0H4.982z" transform="translate(-120.000000, -24.000000) translate(120.000000, 24.000000) translate(0.000000, 3.061224)"/>
                        <path fill="#F19021" d="M7.52 0L5.29 9.498c0 1.284 1.238 2.31 2.786 2.31 1.547 0 2.785-1.026 2.785-2.31L11.605 0H7.52z" transform="translate(-120.000000, -24.000000) translate(120.000000, 24.000000) translate(0.000000, 3.061224)"/>
                        <path fill="#E20A7E" d="M15.69 0h-4.085l-.743 9.498c0 1.284 1.238 2.31 2.785 2.31 1.547 0 2.785-1.026 2.785-2.31L15.69 0z" transform="translate(-120.000000, -24.000000) translate(120.000000, 24.000000) translate(0.000000, 3.061224)"/>
                        <path fill="#0AAF58" d="M24.416 1.508C24.076.61 23.21.032 22.281.032h-2.537l2.228 9.498c0 1.284 1.238 2.31 2.785 2.31.186 0 .34 0 .495-.032 1.516-.224 2.383-1.957 1.826-3.433l-2.662-6.867z" transform="translate(-120.000000, -24.000000) translate(120.000000, 24.000000) translate(0.000000, 3.061224)"/>
                        <path fill="#93BF3E" d="M19.774 0H15.69l.742 9.498c0 1.284 1.238 2.31 2.785 2.31 1.548 0 2.786-1.026 2.786-2.31L19.774 0z" transform="translate(-120.000000, -24.000000) translate(120.000000, 24.000000) translate(0.000000, 3.061224)"/>
                    </g>
                </g>
            </g>
        </g>
    </g>
</svg>
