<?xml version="1.0" encoding="UTF-8"?>
<svg width="25px" height="25px" viewBox="0 0 25 25" version="1.1" xmlns="http://www.w3.org/2000/svg" xmlns:xlink="http://www.w3.org/1999/xlink">
    <title>B18C8F29-CE2C-4D6F-BB28-D366EF3B9A90</title>
    <defs>
        <path d="M9.72222222,0 C15.2777778,0 18.0555556,4.19895833 18.0555556,8.33333333 L18.0561072,9.0976579 C18.8735147,9.46103876 19.4444444,10.2596261 19.4444444,11.1805556 L19.4444444,11.1805556 L19.4444444,15.7638889 C19.4444444,17.0243056 18.375,18.0555556 17.0679012,18.0555556 L17.0679012,18.0555556 L14.691358,18.0555556 C14.0378086,18.0555556 13.5030864,17.5399306 13.5030864,16.9097222 L13.5030864,16.9097222 L13.5030864,10.0347222 C13.5030864,9.40451389 14.0378086,8.88888889 14.691358,8.88888889 L14.691358,8.88888889 L15.277,8.888 L15.2777778,8.33333333 C15.2777778,5.23020833 12.9402778,2.77777778 9.72222222,2.77777778 C6.50416667,2.77777778 4.16666667,5.23020833 4.16666667,8.33333333 L4.166,8.888 L4.75308642,8.88888889 C5.36306584,8.88888889 5.86953361,9.33805556 5.93435162,9.91032716 L5.94135802,10.0347222 L5.94135802,16.9097222 C5.94135802,17.5399306 5.4066358,18.0555556 4.75308642,18.0555556 L4.75308642,18.0555556 L2.37654321,18.0555556 C1.06944444,18.0555556 0,17.0243056 0,15.7638889 L0,15.7638889 L0,11.1805556 C0,10.2598015 0.570712261,9.461343 1.38787018,9.0978656 L1.38888889,8.33333333 C1.38888889,4.19895833 4.16666667,0 9.72222222,0 Z" id="path-1"></path>
    </defs>
    <g id="UI" stroke="none" stroke-width="1" fill="none" fill-rule="evenodd">
        <g id="[Web]-Header-&amp;-top-menu" transform="translate(-716.000000, -2313.000000)">
            <g id="Iconography-/-System-Icon-/-18px-/-CS" transform="translate(716.000000, 2313.000000)">
                <rect id="Bounding" fill-opacity="0.01" fill="#FFFFFF" x="0" y="0" width="25" height="25"></rect>
                <g id="Icon" transform="translate(2.777778, 2.777778)">
                    <mask id="mask-2" fill="white">
                        <use xlink:href="#path-1"></use>
                    </mask>
                    <g id="Combined-Shape" fill-rule="nonzero"></g>
                    <rect id="🎨-Icon-Color" fill-opacity="0.38" fill="#000000" mask="url(#mask-2)" x="-2.77777778" y="-2.77777778" width="25" height="25"></rect>
                </g>
            </g>
        </g>
    </g>
</svg>