<?xml version="1.0" encoding="UTF-8"?>
<svg width="25px" height="25px" viewBox="0 0 25 25" version="1.1" xmlns="http://www.w3.org/2000/svg" xmlns:xlink="http://www.w3.org/1999/xlink">
    <title>06A44A40-72A2-4DF9-81F9-F77A8D4073E1</title>
    <defs>
        <path d="M16.6666667,0 C18.2013889,0 19.4444444,1.24305556 19.4444444,2.77777778 L19.4444444,16.6666667 C19.4444444,18.2013889 18.2013889,19.4444444 16.6666667,19.4444444 L2.77777778,19.4444444 C1.24305556,19.4444444 0,18.2013889 0,16.6666667 L0,2.77777778 C0,1.24305556 1.24305556,0 2.77777778,0 L16.6666667,0 Z M9.72222222,2.95138889 C5.98888889,2.95138889 2.95138889,5.98888889 2.95138889,9.72222222 C2.95138889,13.4555556 5.98888889,16.4930556 9.72222222,16.4930556 C13.4555556,16.4930556 16.4930556,13.4555556 16.4930556,9.72222222 C16.4930556,5.98888889 13.4555556,2.95138889 9.72222222,2.95138889 Z M9.72222222,5.03472222 C12.3111111,5.03472222 14.4097222,7.13194444 14.4097222,9.72222222 C14.4097222,12.3111111 12.3111111,14.4097222 9.72222222,14.4097222 C7.13333333,14.4097222 5.03472222,12.3111111 5.03472222,9.72222222 C5.03472222,7.13333333 7.13194444,5.03472222 9.72222222,5.03472222 Z M16.4916667,1.3875 C15.6305556,1.3875 14.9291667,2.0875 14.9291667,2.95 C14.9291667,3.8125 15.6291667,4.5125 16.4916667,4.5125 C17.3555556,4.5125 18.0541687,3.8125 18.0541687,2.95 C18.0555556,2.08888889 17.3541667,1.38888889 16.4916667,1.38888889 L16.4916667,1.3875 Z" id="path-1"></path>
    </defs>
    <g id="UI" stroke="none" stroke-width="1" fill="none" fill-rule="evenodd">
        <g id="[Web]-Header-&amp;-top-menu" transform="translate(-717.000000, -2406.000000)">
            <g id="instagram" transform="translate(717.000000, 2406.000000)">
                <polygon id="Path" fill-opacity="0.01" fill="#FFFFFF" fill-rule="nonzero" points="0 0 25 0 25 25 0 25"></polygon>
                <g id="Clipped" transform="translate(2.777778, 2.777778)">
                    <mask id="mask-2" fill="white">
                        <use xlink:href="#path-1"></use>
                    </mask>
                    <g id="dag3zkylsa"></g>
                    <polygon id="Path" fill="#F58529" mask="url(#mask-2)" points="-2.77777778 -2.77777778 22.2222222 -2.77777778 22.2222222 22.2222222 -2.77777778 22.2222222"></polygon>
                </g>
            </g>
        </g>
    </g>
</svg>