<?xml version="1.0" encoding="UTF-8"?>
<svg width="25px" height="25px" viewBox="0 0 25 25" version="1.1" xmlns="http://www.w3.org/2000/svg" xmlns:xlink="http://www.w3.org/1999/xlink">
    <title>1AC89539-3DA0-414D-92A1-4104A23CB731</title>
    <defs>
        <path d="M0.0107964711,4.92521368 L9.24177926,9.49786325 C9.39292985,9.57264957 9.55487692,9.61538462 9.72762046,9.61538462 C9.900364,9.61538462 10.0623111,9.57264957 10.2134617,9.49786325 L10.2134617,9.49786325 L19.4444444,4.93589744 L19.4444444,11.7521368 C19.4444444,12.9273504 18.472762,13.8888889 17.2851502,13.8888889 L17.2851502,13.8888889 L2.17009069,13.8888889 C0.98247887,13.8888889 0.0107964711,12.9273504 0.0107964711,11.7521368 L0.0107964711,11.7521368 L0.0107964711,4.92521368 Z M17.2743538,-1.46549439e-14 C18.4619656,-1.46549439e-14 19.433648,0.961538462 19.433648,2.13675214 L19.433648,2.13675214 L19.4271743,2.22816924 C19.3972099,2.43923611 19.2649531,2.63087607 19.066568,2.72435897 L19.066568,2.72435897 L9.96514282,7.23290598 C9.81399223,7.30769231 9.64124869,7.30769231 9.46850515,7.23290598 L9.46850515,7.23290598 L0.367080017,2.72435897 C0.140354124,2.61752137 -4.38760139e-13,2.38247863 -4.38760139e-13,2.13675214 L-4.38760139e-13,2.13675214 L0.00544837121,1.98473663 C0.0849023058,0.879744074 1.0233177,-1.46549439e-14 2.15929422,-1.46549439e-14 L2.15929422,-1.46549439e-14 Z" id="path-1"></path>
    </defs>
    <g id="UI" stroke="none" stroke-width="1" fill="none" fill-rule="evenodd">
        <g id="[Web]-Header-&amp;-top-menu" transform="translate(-716.000000, -2344.000000)">
            <g id="Iconography-/-System-Icon-/-18px-/-Mail" transform="translate(716.000000, 2344.000000)">
                <rect id="Bounding" fill-opacity="0.01" fill="#FFFFFF" x="0" y="0" width="25" height="25"></rect>
                <g id="Arrow-up" transform="translate(12.500000, 12.500000) scale(-1, 1) translate(-12.500000, -12.500000) translate(2.777778, 5.555556)">
                    <mask id="mask-2" fill="white">
                        <use xlink:href="#path-1"></use>
                    </mask>
                    <g id="Combined-Shape" fill-rule="nonzero"></g>
                    <rect id="🔸-Icon-Color" fill-opacity="0.38" fill="#000000" mask="url(#mask-2)" x="-2.77777778" y="-5.55555556" width="25" height="25"></rect>
                </g>
            </g>
        </g>
    </g>
</svg>