<?xml version="1.0" encoding="UTF-8"?>
<svg width="25px" height="25px" viewBox="0 0 25 25" version="1.1" xmlns="http://www.w3.org/2000/svg" xmlns:xlink="http://www.w3.org/1999/xlink">
    <title>F2657594-E682-4B1E-B2D8-D2678F0C8F62</title>
    <defs>
        <path d="M3.90268778,16.1111111 C3.28061255,16.1111111 2.77777778,15.6144444 2.77777778,15 L2.77777778,3.88888889 C2.77777778,3.27444444 3.28061255,2.77777778 3.90268778,2.77777778 L9.9862011,2.77777778 C10.6082763,2.77777778 11.1111111,3.27444444 11.1111111,3.88888889 L11.1111111,15 C11.1111111,15.6144444 10.6082763,16.1111111 9.9862011,16.1111111 M6.94444444,20.7992593 C6.17638889,20.7992593 5.55555556,20.1860415 5.55555556,19.4274074 C5.55555556,18.6687733 6.17638889,18.0555556 6.94444444,18.0555556 C7.7125,18.0555556 8.33333333,18.6687733 8.33333333,19.4274074 C8.33333333,20.1860415 7.7125,20.7992593 6.94444444,20.7992593 M2.50067495,0 C1.11928546,0 0,1.10555556 0,2.47 L0,19.7522222 C0,21.1166667 1.11928546,22.2222222 2.50067495,22.2222222 L11.3882139,22.2222222 C12.7696034,22.2222222 13.8888889,21.1166667 13.8888889,19.7522222 L13.8888889,2.47 C13.8888889,1.10555556 12.7696034,0 11.3882139,0 L2.50067495,0 Z" id="path-1"></path>
    </defs>
    <g id="UI" stroke="none" stroke-width="1" fill="none" fill-rule="evenodd">
        <g id="[Web]-Header-&amp;-top-menu" transform="translate(-776.000000, -2375.000000)">
            <g id="Iconography-/-System-Icon-/-18px-/-Phone" transform="translate(776.000000, 2375.000000)">
                <rect id="Bounding" fill-opacity="0.01" fill="#FFFFFF" x="0" y="0" width="25" height="25"></rect>
                <g id="Icon" transform="translate(5.555556, 1.388889)">
                    <mask id="mask-2" fill="white">
                        <use xlink:href="#path-1"></use>
                    </mask>
                    <g id="Fill-1"></g>
                    <rect id="🎨-Icon-Color" fill-opacity="0.38" fill="#000000" mask="url(#mask-2)" x="-5.55555556" y="-1.38888889" width="25" height="25"></rect>
                </g>
            </g>
        </g>
    </g>
</svg>