<?xml version="1.0" encoding="UTF-8"?>
<svg width="25px" height="25px" viewBox="0 0 25 25" version="1.1" xmlns="http://www.w3.org/2000/svg" xmlns:xlink="http://www.w3.org/1999/xlink">
    <title>A15A5124-3838-469C-BBB3-5D0CF2207144</title>
    <defs>
        <path d="M16.6666667,0 C18.2013889,0 19.4444444,1.24305556 19.4444444,2.77777778 L19.4444444,16.6666667 C19.4444444,18.2013889 18.2013889,19.4444444 16.6666667,19.4444444 L2.77777778,19.4444444 C1.24305556,19.4444444 0,18.2013889 0,16.6666667 L0,2.77777778 C0,1.24305556 1.24305556,0 2.77777778,0 L16.6666667,0 Z M14.2319444,4.63194444 L4.14166667,9.11527778 C3.82222222,9.25833333 3.67777778,9.63333333 3.81944444,9.95416667 C3.88611111,10.1041667 4.00833333,10.2222222 4.16111111,10.2847222 L5.82777778,10.9611111 C6.35694444,11.1763889 6.96111111,11.0902778 7.40972222,10.7361111 L12.4152778,6.78055556 C12.4847222,6.72638889 12.5847222,6.73888889 12.6375,6.80694444 C12.6861111,6.86666667 12.6833333,6.95138889 12.6347222,7.00833333 L8.87083333,11.3791667 C8.58472222,11.7111111 8.62083333,12.2125 8.95416667,12.4986111 C8.99027778,12.5305556 9.03055556,12.5583333 9.07361111,12.5819444 L12.4902778,14.5680556 C12.9458333,14.8319444 13.5291667,14.6763889 13.7930556,14.2208333 C13.8541667,14.1152778 13.8958333,13.9986111 13.9125,13.8763889 L15.1180556,5.3 C15.1666667,4.95277778 14.925,4.63194444 14.5777778,4.58333333 C14.4597222,4.56666667 14.3416667,4.58333333 14.2305556,4.63194444 L14.2319444,4.63194444 Z" id="path-1"></path>
    </defs>
    <g id="UI" stroke="none" stroke-width="1" fill="none" fill-rule="evenodd">
        <g id="[Web]-Header-&amp;-top-menu" transform="translate(-716.000000, -2468.000000)">
            <g id="telegram" transform="translate(716.000000, 2468.000000)">
                <polygon id="Path" fill-opacity="0.01" fill="#FFFFFF" fill-rule="nonzero" points="0 0 25 0 25 25 0 25"></polygon>
                <g id="Clipped" transform="translate(2.777778, 2.777778)">
                    <mask id="mask-2" fill="white">
                        <use xlink:href="#path-1"></use>
                    </mask>
                    <g id="nnd9xdtmca"></g>
                    <polygon id="Path" fill="#0088CC" mask="url(#mask-2)" points="-2.77777778 -2.77777778 22.2222222 -2.77777778 22.2222222 22.2222222 -2.77777778 22.2222222"></polygon>
                </g>
            </g>
        </g>
    </g>
</svg>